<svg xmlns="http://www.w3.org/2000/svg" width="13" height="13" viewBox="0 0 13 13">
  <path fill="#FFF" fill-rule="evenodd" d="M99.3258929,2.08823529 C99.403274,2.02941176 99.4903275,2 99.5870536,2 C99.6837796,2 99.7611607,2.02941176 99.8191964,2.08823529 L105.883929,8.26470588 C105.96131,8.32352941 106,8.40196093 106,8.5 C106,8.59803907 105.96131,8.67647059 105.883929,8.73529412 L99.8191964,14.9117647 C99.7611607,14.9705882 99.6837796,15 99.5870536,15 C99.4903275,15 99.403274,14.9705882 99.3258929,14.9117647 L98.7455357,14.3235294 C98.6875,14.2647059 98.6584821,14.1862744 98.6584821,14.0882353 C98.6584821,13.9901962 98.6875,13.9019609 98.7455357,13.8235294 L103.243304,9.26470588 L93.3482143,9.26470588 C93.2514882,9.26470588 93.1692707,9.23039201 93.1015625,9.16176471 C93.0338543,9.0931374 93,9.00980377 93,8.91176471 L93,8.08823529 C93,7.99019623 93.0338543,7.9068626 93.1015625,7.83823529 C93.1692707,7.76960799 93.2514882,7.73529412 93.3482143,7.73529412 L103.243304,7.73529412 L98.7455357,3.17647059 C98.6875,3.09803907 98.6584821,3.00980377 98.6584821,2.91176471 C98.6584821,2.81372564 98.6875,2.73529412 98.7455357,2.67647059 L99.3258929,2.08823529 Z" transform="translate(-93 -2)"/>
</svg>
