<svg xmlns="http://www.w3.org/2000/svg" width="23" height="42" viewBox="0 0 23 42">
  <path fill="#cacbcc" fill-rule="evenodd" d="m1322.03125 1533.28125c.1875-.1875.4375-.28125.75-.28125.31249 0 .56249.09375.74999.28125l19.87496 19.87495c.1875.1875.28125.4375.28125.75s-.09375.5625-.28125.75l-19.87496 19.87495c-.1875.1875-.4375.28125-.74999.28125-.3125 0-.5625-.09375-.75-.28125l-.75-.75c-.1875-.1875-.28125-.4375-.28125-.75 0-.31249.09375-.59374.28125-.84374l18.37496-18.28121-18.37496-18.28121c-.1875-.25-.28125-.53125-.28125-.84374 0-.3125.09375-.5625.28125-.75z" transform="translate(-1321 -1533)"/>
</svg>
