<svg xmlns="http://www.w3.org/2000/svg" width="23" height="42" viewBox="0 0 23 42">
  <path fill="#cacbcc" fill-rule="evenodd" d="m90.0312475 1533.28125c.1874996-.1875.4374995-.28125.7499983-.28125.3124987 0 .5624986.09375.7499982.28125l19.874953 19.87495c.187499.1875.281249.4375.281249.75s-.09375.5625-.281249.75l-19.874953 19.87495c-.1874996.1875-.4374995.28125-.7499982.28125-.3124988 0-.5624987-.09375-.7499983-.28125l-.7499982-.75c-.1874995-.1875-.2812493-.4375-.2812493-.75 0-.31249.0937498-.59374.2812493-.84374l18.3749567-18.28121-18.3749567-18.28121c-.1874995-.25-.2812493-.53125-.2812493-.84374 0-.3125.0937498-.5625.2812493-.75z" transform="matrix(-1 0 0 1 111.687 -1533)"/>
</svg>
