<svg xmlns="http://www.w3.org/2000/svg" width="32" height="32" viewBox="0 0 32 32">
  <g fill="none" fill-rule="evenodd">
    <circle cx="16" cy="16" r="15" stroke="#3D474D" stroke-width="2"/>
    <path stroke="#3D474D" stroke-width="2" d="M8.06097717,20.5020111 L8.06097717,28.5020111" transform="scale(-1 1) rotate(-45 0 43.963)"/>
    <path stroke="#3D474D" stroke-width="2" d="M24.322714,4.24027425 L24.322714,12.2402742" transform="scale(-1 1) rotate(-45 0 66.96)"/>
    <path fill="#3D474D" fill-rule="nonzero" d="M17,15.2 L17,12.1 C17.6,12.3 18,12.9 18,13.5 C18,14.1 18.4,14.5 19,14.5 C19.6,14.5 20,14.1 20,13.5 C20,11.7 18.7,10.3 17,10.1 L17,9 C17,8.4 16.6,8 16,8 C15.4,8 15,8.4 15,9 L15,10.1 C13.3,10.3 12,11.7 12,13.5 C12,15.6 13.6,16.4 15,16.8 L15,19.9 C14.4,19.7 14,19.1 14,18.5 C14,17.9 13.6,17.5 13,17.5 C12.4,17.5 12,17.9 12,18.5 C12,20.3 13.3,21.7 15,21.9 L15,23 C15,23.6 15.4,24 16,24 C16.6,24 17,23.6 17,23 L17,21.9 C18.7,21.7 20,20.2 20,18.5 C20,16.4 18.4,15.6 17,15.2 Z M14,13.5 C14,12.8 14.4,12.3 15,12.1 L15,14.7 C14.3,14.4 14,14.1 14,13.5 Z M17,19.9 L17,17.3 C17.7,17.6 18,17.9 18,18.5 C18,19.2 17.6,19.7 17,19.9 Z"/>
  </g>
</svg>
