<svg height="32" viewBox="0 0 32 32" width="32" xmlns="http://www.w3.org/2000/svg"><g fill="none" fill-rule="evenodd"><circle cx="16" cy="16" r="15" stroke="#3d474d" stroke-width="2"/><g fill="#3d474d"><path d="m23.9 16.6-.9-1.9-1-5.9c-.1-.4-.5-.8-1-.8h-10c-.5 0-.9.4-1 .8l-1 5.9-.9 1.9c-.1.1-.1.2-.1.4v4c0 .6.4 1 1 1v1c0 .6.4 1 1 1h2c.6 0 1-.4 1-1v-1h6v1c0 .6.4 1 1 1h2c.6 0 1-.4 1-1v-1c.6 0 1-.4 1-1v-4c0-.2 0-.3-.1-.4zm-12.1-6.6h8.3l.7 4h-9.6zm-1.8 10v-2.8l.6-1.2h10.8l.6 1.2v2.8z" fill-rule="nonzero"/><circle cx="12" cy="18" r="1"/><circle cx="20" cy="18" r="1"/></g></g></svg>