<svg xmlns="http://www.w3.org/2000/svg" width="32" height="32" viewBox="0 0 32 32">
  <g fill="none" fill-rule="evenodd">
    <circle cx="16" cy="16" r="15" stroke="#3D474D" stroke-width="2"/>
    <circle cx="16" cy="20.5" r="1.5" fill="#3D474D"/>
    <path fill="#3D474D" d="M19.5,18 C18.6,17 17.3,16.5 16,16.5 C14.7,16.5 13.4,17 12.5,18 L11.1,16.6 C12.4,15.2 14.1,14.5 16,14.5 C17.9,14.5 19.6,15.2 20.9,16.6 L19.5,18 Z"/>
    <path fill="#3D474D" d="M16,10 C13,10 10.2,11.1 8,13.2 L9.4,14.6 C11.2,12.9 13.5,12 16,12 C18.5,12 20.8,12.9 22.6,14.7 L24,13.2 C21.8,11.1 19,10 16,10 Z"/>
  </g>
</svg>
